<?xml version="1.0" encoding="UTF-8" standalone="no"?>
<!-- Generator: Adobe Illustrator 22.0.1, SVG Export Plug-In . SVG Version: 6.00 Build 0)  -->

<svg
   xmlns:dc="http://purl.org/dc/elements/1.1/"
   xmlns:cc="http://creativecommons.org/ns#"
   xmlns:rdf="http://www.w3.org/1999/02/22-rdf-syntax-ns#"
   xmlns:svg="http://www.w3.org/2000/svg"
   xmlns="http://www.w3.org/2000/svg"
   xmlns:sodipodi="http://sodipodi.sourceforge.net/DTD/sodipodi-0.dtd"
   xmlns:inkscape="http://www.inkscape.org/namespaces/inkscape"
   version="1.1"
   id="Ebene_1"
   x="0px"
   y="0px"
   viewBox="0 0 362.4 78.8"
   style="enable-background:new 0 0 362.4 78.8;"
   xml:space="preserve"
   sodipodi:docname="leibniz_psychology_white.svg"
   inkscape:version="0.92.4 (5da689c313, 2019-01-14)"><metadata
   id="metadata75"><rdf:RDF><cc:Work
       rdf:about=""><dc:format>image/svg+xml</dc:format><dc:type
         rdf:resource="http://purl.org/dc/dcmitype/StillImage" /><dc:title>Logo_ZPID</dc:title></cc:Work></rdf:RDF></metadata><defs
   id="defs73" /><sodipodi:namedview
   pagecolor="#ffffff"
   bordercolor="#666666"
   borderopacity="1"
   objecttolerance="10"
   gridtolerance="10"
   guidetolerance="10"
   inkscape:pageopacity="0"
   inkscape:pageshadow="2"
   inkscape:window-width="1920"
   inkscape:window-height="986"
   id="namedview71"
   showgrid="false"
   inkscape:zoom="1.0816777"
   inkscape:cx="181.2"
   inkscape:cy="39.400002"
   inkscape:window-x="-11"
   inkscape:window-y="-11"
   inkscape:window-maximized="1"
   inkscape:current-layer="Ebene_1" />
<style
   type="text/css"
   id="style2">
	.st0{enable-background:new    ;}
	.st1{fill:#362071;}
	.st2{fill:none;stroke:#362071;stroke-width:5;stroke-miterlimit:10;}
</style>
<title
   id="title4">Logo_ZPID</title>
<g
   class="st0"
   id="g26"
   style="fill:#ffffff;fill-opacity:1">
	<path
   class="st1"
   d="M89.8,36.9H88v-2.1h4.6v12.1c0,1,0.2,1.6,1.2,1.6c0.3,0,0.5,0,0.5,0v2.3c0,0-0.5,0.1-1,0.1   c-1.8,0-3.5-0.6-3.5-3.7V36.9z"
   id="path6"
   style="fill:#ffffff;fill-opacity:1" />
	<path
   class="st1"
   d="M101.6,39c3.3,0,5.1,2.4,5.1,5.4c0,0.3-0.1,1-0.1,1h-7.9c0.2,2.1,1.7,3.2,3.4,3.2c1.9,0,3.3-1.2,3.3-1.2l1.1,2   c0,0-1.7,1.6-4.6,1.6c-3.8,0-6.1-2.7-6.1-6C95.8,41.4,98.1,39,101.6,39z M103.7,43.7c0-1.6-1-2.5-2.2-2.5c-1.5,0-2.5,1-2.8,2.5   H103.7z"
   id="path8"
   style="fill:#ffffff;fill-opacity:1" />
	<path
   class="st1"
   d="M108.5,48.5h1.7v-7.2h-1.8v-2.1h4.6v9.3h1.6v2.1h-6.1V48.5z M110.2,34.8h2.9v2.5h-2.9V34.8z"
   id="path10"
   style="fill:#ffffff;fill-opacity:1" />
	<path
   class="st1"
   d="M117.1,36.9h-1.7v-2.1h4.6v5c0,0.6,0,1,0,1h0c0,0,1-1.7,3.4-1.7c3.1,0,5.1,2.4,5.1,6c0,3.6-2.2,6-5.3,6   c-2.5,0-3.4-1.8-3.4-1.8h0c0,0,0,0.4,0,0.9v0.7h-2.7V36.9z M122.7,48.5c1.6,0,2.9-1.3,2.9-3.5c0-2.2-1.2-3.6-2.8-3.6   c-1.5,0-2.9,1.1-2.9,3.6C119.9,46.8,120.8,48.5,122.7,48.5z"
   id="path12"
   style="fill:#ffffff;fill-opacity:1" />
	<path
   class="st1"
   d="M130.3,48.5h1.7v-6.7c0-0.3-0.2-0.5-0.5-0.5h-1.3v-2.1h3c1,0,1.5,0.5,1.5,1.3V41c0,0.2,0,0.5,0,0.5h0   c0.1-0.4,1.3-2.6,4.2-2.6c2.4,0,3.8,1.3,3.8,4.3v5.2h1.7v2.1h-4.5v-6.8c0-1.4-0.4-2.3-1.8-2.3c-2.1,0-3.3,2-3.3,4v3h1.6v2.1h-6.1   V48.5z"
   id="path14"
   style="fill:#ffffff;fill-opacity:1" />
	<path
   class="st1"
   d="M145.9,48.5h1.7v-7.2h-1.8v-2.1h4.6v9.3h1.6v2.1h-6.1V48.5z M147.6,34.8h2.9v2.5h-2.9V34.8z"
   id="path16"
   style="fill:#ffffff;fill-opacity:1" />
	<path
   class="st1"
   d="M159.6,42c0.3-0.4,0.7-0.7,0.7-0.7v0c0,0-0.5,0-1,0h-3V43h-2.4v-3.8h9.8v1.8l-5.7,6.8   c-0.3,0.4-0.7,0.6-0.7,0.6v0c0,0,0.5,0,0.9,0h3.2v-1.6h2.4v3.8h-10v-1.8L159.6,42z"
   id="path18"
   style="fill:#ffffff;fill-opacity:1" />
	<path
   class="st1"
   d="M166.6,43h6.7v2.5h-6.7V43z"
   id="path20"
   style="fill:#ffffff;fill-opacity:1" />
	<path
   class="st1"
   d="M177.6,53V41.9c0-0.3-0.2-0.5-0.5-0.5h-1.3v-2.1h2.9c1.1,0,1.4,0.5,1.4,1.1v0.1c0,0.3,0,0.5,0,0.5h0   c0,0,1-1.9,3.7-1.9c3.1,0,5.1,2.4,5.1,6c0,3.6-2.2,6-5.2,6c-2.3,0-3.3-1.6-3.3-1.6h0c0,0,0.1,0.4,0.1,1V53h1.7v2.1H176V53H177.6z    M183.2,48.5c1.6,0,2.9-1.3,2.9-3.5c0-2.2-1.2-3.6-2.8-3.6c-1.5,0-2.9,1.1-2.9,3.6C180.4,46.8,181.4,48.5,183.2,48.5z"
   id="path22"
   style="fill:#ffffff;fill-opacity:1" />
	<path
   class="st1"
   d="M190.6,46.9h2.4v0.7c0,0.8,1.1,1.2,2.2,1.2c1.1,0,2-0.4,2-1.2c0-1-1.1-1.2-2.6-1.8c-1.7-0.6-3.6-1.4-3.6-3.5   c0-2.4,2.4-3.3,4.5-3.3c1.7,0,4.1,0.7,4.1,2.4v1.5h-2.4v-0.6c0-0.6-0.7-0.9-1.7-0.9c-0.9,0-1.7,0.3-1.7,1c0,0.9,1.1,1.3,2.4,1.7   c1.7,0.6,3.8,1.3,3.8,3.5c0,2.3-2.2,3.5-4.8,3.5c-2.1,0-4.6-0.9-4.6-2.8V46.9z"
   id="path24"
   style="fill:#ffffff;fill-opacity:1" />
</g>
<g
   class="st0"
   id="g30"
   style="fill:#ffffff;fill-opacity:1">
	<path
   class="st1"
   d="M204,53c0.9,0,1.7-0.5,2-1.3l0.3-0.7l-3.9-9.6h-1.4v-2.1h5.6v2.1h-1.3l2.1,5.8c0.2,0.6,0.2,1.2,0.2,1.2h0.1   c0,0,0.1-0.6,0.3-1.2l2.1-5.8h-1.3v-2.1h5.4v2.1h-1.3l-4.2,10.8c-0.9,2.3-2.6,3.2-4.5,3.2c-1.7,0-2.8-0.8-2.8-0.8l0.9-2.1   C202.3,52.5,203,53,204,53z"
   id="path28"
   style="fill:#ffffff;fill-opacity:1" />
</g>
<g
   class="st0"
   id="g38"
   style="fill:#ffffff;fill-opacity:1">
	<path
   class="st1"
   d="M221.2,39c1.9,0,4.7,0.7,4.7,2.7v1.6h-2.5v-0.8c0-0.8-1.2-1.1-2.1-1.1c-2.1,0-3.4,1.4-3.4,3.5   c0,2.4,1.6,3.6,3.6,3.6c1.6,0,2.9-0.9,3.6-1.4l1,2c-0.8,0.7-2.6,1.8-4.7,1.8c-3.3,0-6.3-2.3-6.3-6C215.1,41.6,217.7,39,221.2,39z"
   id="path32"
   style="fill:#ffffff;fill-opacity:1" />
	<path
   class="st1"
   d="M227.5,48.5h1.7V36.9h-1.8v-2.1h4.6v5.6c0,0.6-0.1,1-0.1,1h0c0.6-1.1,2-2.3,3.9-2.3c2.5,0,4,1.3,4,4.3v5.2h1.7   v2.1h-4.5v-6.8c0-1.4-0.4-2.3-1.8-2.3c-2,0-3.3,1.7-3.3,3.9v3.1h1.6v2.1h-6.1V48.5z"
   id="path34"
   style="fill:#ffffff;fill-opacity:1" />
	<path
   class="st1"
   d="M249.1,39c3.5,0,6.3,2.5,6.3,6c0,3.5-2.8,6-6.3,6c-3.5,0-6.3-2.5-6.3-6C242.8,41.5,245.6,39,249.1,39z    M249.1,48.5c1.8,0,3.4-1.4,3.4-3.6c0-2.1-1.5-3.6-3.4-3.6c-1.9,0-3.4,1.5-3.4,3.6C245.7,47.1,247.3,48.5,249.1,48.5z"
   id="path36"
   style="fill:#ffffff;fill-opacity:1" />
</g>
<g
   class="st0"
   id="g42"
   style="fill:#ffffff;fill-opacity:1">
	<path
   class="st1"
   d="M257.8,36.9h-1.8v-2.1h4.6v12.1c0,1,0.2,1.6,1.2,1.6c0.3,0,0.5,0,0.5,0v2.3c0,0-0.5,0.1-1,0.1   c-1.8,0-3.5-0.6-3.5-3.7V36.9z"
   id="path40"
   style="fill:#ffffff;fill-opacity:1" />
</g>
<g
   class="st0"
   id="g48"
   style="fill:#ffffff;fill-opacity:1">
	<path
   class="st1"
   d="M270,39c3.5,0,6.3,2.5,6.3,6c0,3.5-2.8,6-6.3,6c-3.5,0-6.3-2.5-6.3-6C263.7,41.5,266.5,39,270,39z M270,48.5   c1.8,0,3.4-1.4,3.4-3.6c0-2.1-1.5-3.6-3.4-3.6c-1.9,0-3.4,1.5-3.4,3.6C266.6,47.1,268.2,48.5,270,48.5z"
   id="path44"
   style="fill:#ffffff;fill-opacity:1" />
	<path
   class="st1"
   d="M283,53c1.7,0,3.2-0.8,3.2-2.9v-0.7c0-0.3,0-0.6,0-0.6h0c-0.7,1-1.7,1.6-3.2,1.6c-3.3,0-5.1-2.6-5.1-5.8   c0-3.1,1.8-5.7,5.1-5.7c1.4,0,2.9,0.5,3.5,1.7h0c0,0,0-0.2,0-0.4c0-0.6,0.4-1.1,1.3-1.1h2.8v2.1h-1.1c-0.3,0-0.5,0.2-0.5,0.4V50   c0,3.9-3,5.4-6,5.4c-1.4,0-3-0.4-4.1-1l0.9-2.1C279.8,52.3,281.2,53,283,53z M286.3,44.7c0-2.6-1.3-3.3-2.8-3.3   c-1.7,0-2.7,1.3-2.7,3.2c0,2,1,3.5,2.9,3.5C285,48,286.3,47.3,286.3,44.7z"
   id="path46"
   style="fill:#ffffff;fill-opacity:1" />
</g>
<g
   class="st0"
   id="g52"
   style="fill:#ffffff;fill-opacity:1">
	<path
   class="st1"
   d="M294.5,53c0.9,0,1.7-0.5,2-1.3l0.3-0.7l-3.9-9.6h-1.4v-2.1h5.6v2.1h-1.3l2.1,5.8c0.2,0.6,0.2,1.2,0.2,1.2h0.1   c0,0,0.1-0.6,0.3-1.2l2.1-5.8h-1.3v-2.1h5.4v2.1h-1.3l-4.2,10.8c-0.9,2.3-2.6,3.2-4.5,3.2c-1.7,0-2.8-0.8-2.8-0.8l0.9-2.1   C292.8,52.5,293.5,53,294.5,53z"
   id="path50"
   style="fill:#ffffff;fill-opacity:1" />
</g>
<g
   class="st0"
   id="g62"
   style="fill:#ffffff;fill-opacity:1">
	<path
   class="st1"
   d="M306.1,47.8h2.8v2.9h-2.8V47.8z"
   id="path54"
   style="fill:#ffffff;fill-opacity:1" />
	<path
   class="st1"
   d="M317.5,39c3.5,0,6.3,2.5,6.3,6c0,3.5-2.8,6-6.3,6c-3.5,0-6.3-2.5-6.3-6C311.3,41.5,314.1,39,317.5,39z    M317.6,48.5c1.8,0,3.4-1.4,3.4-3.6c0-2.1-1.5-3.6-3.4-3.6c-1.9,0-3.4,1.5-3.4,3.6C314.2,47.1,315.7,48.5,317.6,48.5z"
   id="path56"
   style="fill:#ffffff;fill-opacity:1" />
	<path
   class="st1"
   d="M325.6,48.5h1.7v-6.7c0-0.3-0.2-0.5-0.5-0.5h-1.3v-2.1h3c1,0,1.5,0.4,1.5,1.4v0.7c0,0.4,0,0.7,0,0.7h0   c0.5-1.6,1.9-2.9,3.6-2.9c0.3,0,0.5,0,0.5,0v2.8c0,0-0.3,0-0.7,0c-2.3,0-3.3,2-3.3,4.2v2.5h1.6v2.1h-6.1V48.5z"
   id="path58"
   style="fill:#ffffff;fill-opacity:1" />
	<path
   class="st1"
   d="M340.5,53c1.7,0,3.2-0.8,3.2-2.9v-0.7c0-0.3,0-0.6,0-0.6h0c-0.7,1-1.7,1.6-3.2,1.6c-3.3,0-5.1-2.6-5.1-5.8   c0-3.1,1.8-5.7,5.1-5.7c1.4,0,2.9,0.5,3.5,1.7h0c0,0,0-0.2,0-0.4c0-0.6,0.4-1.1,1.3-1.1h2.8v2.1h-1.1c-0.3,0-0.5,0.2-0.5,0.4V50   c0,3.9-3,5.4-6,5.4c-1.4,0-3-0.4-4.1-1l0.9-2.1C337.3,52.3,338.7,53,340.5,53z M343.8,44.7c0-2.6-1.3-3.3-2.8-3.3   c-1.7,0-2.7,1.3-2.7,3.2c0,2,1,3.5,2.9,3.5C342.5,48,343.8,47.3,343.8,44.7z"
   id="path60"
   style="fill:#ffffff;fill-opacity:1" />
</g>
<circle
   class="st2"
   cx="39.4"
   cy="39.4"
   r="36.9"
   id="circle64"
   style="stroke:#ffffff" />
<path
   class="st2"
   d="M34,48.3h-2.4c-5.7,0-10.4-4.7-10.4-10.4l0-13.2"
   id="path66"
   style="stroke:#f9f9f9" />
<path
   class="st2"
   d="M39.6,65.3V33c0-4.5,3.7-8.2,8.2-8.2h2.8c4.5,0,8.2,3.7,8.2,8.2v4.9c0,5.7-4.7,10.4-10.4,10.4h-9.8"
   id="path68"
   style="stroke:#f9f9f9" />
</svg>