<?xml version="1.0" encoding="UTF-8" standalone="no"?>
<svg
   xmlns:dc="http://purl.org/dc/elements/1.1/"
   xmlns:cc="http://creativecommons.org/ns#"
   xmlns:rdf="http://www.w3.org/1999/02/22-rdf-syntax-ns#"
   xmlns:svg="http://www.w3.org/2000/svg"
   xmlns="http://www.w3.org/2000/svg"
   id="svg8"
   version="1.1"
   viewBox="0 0 53.943115 10.532057"
   height="10.532057mm"
   width="53.943115mm">
  <defs
     id="defs2">
    <style
       id="style815">.cls-1 {
                    fill: #362071;
                }</style>
  </defs>
  <metadata
     id="metadata5">
    <rdf:RDF>
      <cc:Work
         rdf:about="">
        <dc:format>image/svg+xml</dc:format>
        <dc:type
           rdf:resource="http://purl.org/dc/dcmitype/StillImage" />
        <dc:title></dc:title>
      </cc:Work>
    </rdf:RDF>
  </metadata>
  <g
     transform="translate(-55.427246,-225.96611)"
     id="layer1">
    <path
       id="path821"
       d="m 69.559753,233.16651 h 0.606954 v -3.66361 h -0.606954 v -0.70717 h 2.428266 a 2.22631,2.22631 0 0 1 0.857065,0.12866 1.5569935,1.5569935 0 0 1 0.906912,1.49966 1.5755673,1.5755673 0 0 1 -0.964009,1.54279 2.4503327,2.4503327 0 0 1 -0.77851,0.10001 H 71.1023 v 1.09966 h 0.614442 v 0.69996 h -2.156989 z m 2.328333,-1.84944 a 1.1027569,1.1027569 0 0 0 0.514191,-0.1 0.82549999,0.82549999 0 0 0 0.414047,-0.79304 0.8275902,0.8275902 0 0 0 -0.37129,-0.75671 1.0458714,1.0458714 0 0 0 -0.549831,-0.12141 H 71.1023 v 1.77098 z"
       class="cls-1"
       style="fill:#ffffff;stroke-width:0.26458332" />
    <path
       id="path823"
       d="m 74.153025,232.65235 h 0.771525 v 0.21444 c 0,0.24985 0.335624,0.37854 0.714163,0.37854 0.364067,0 0.621163,-0.12869 0.621163,-0.37155 0,-0.30692 -0.342636,-0.38553 -0.828384,-0.56407 -0.535623,-0.18576 -1.1498,-0.43561 -1.1498,-1.12861 0,-0.77126 0.77126,-1.04245 1.435576,-1.04245 0.528373,0 1.314133,0.20695 1.314133,0.75705 v 0.46405 h -0.77851 v -0.20696 c 0,-0.18579 -0.214313,-0.29998 -0.535623,-0.29998 -0.28575,0 -0.528664,0.1 -0.528664,0.3284 0,0.29998 0.357188,0.42143 0.764302,0.54287 0.55708,0.17854 1.214147,0.4072 1.214147,1.12138 0,0.73555 -0.699956,1.10692 -1.535563,1.10692 -0.664316,0 -1.478465,-0.28575 -1.478465,-0.87842 z"
       class="cls-1"
       style="fill:#ffffff;stroke-width:0.26458332" />
    <path
       id="path825"
       d="m 78.439063,234.62354 a 0.67757145,0.67757145 0 0 0 0.642938,-0.42142 l 0.09999,-0.22842 -1.25013,-3.07112 h -0.435636 v -0.67826 h 1.792658 v 0.67826 h -0.428387 l 0.664104,1.84277 a 1.6229806,1.6229806 0 0 1 0.07855,0.37854 h 0.02146 a 1.9019573,1.9019573 0 0 1 0.09999,-0.37854 l 0.657067,-1.84277 H 79.96008 v -0.67826 h 1.721352 v 0.67826 H 81.2673 l -1.342813,3.43545 a 1.4743112,1.4743112 0 0 1 -1.442535,1.02836 1.6655521,1.6655521 0 0 1 -0.885745,-0.25011 l 0.293026,-0.66411 a 0.9408054,0.9408054 0 0 0 0.54983,0.17137 z"
       class="cls-1"
       style="fill:#ffffff;stroke-width:0.26458332" />
    <path
       id="path827"
       d="m 83.92504,230.13854 c 0.607192,0 1.492673,0.22841 1.492673,0.87127 v 0.50006 h -0.785495 v -0.24288 c 0,-0.24286 -0.371554,-0.35719 -0.678497,-0.35719 a 1.029626,1.029626 0 0 0 -1.071272,1.12138 1.0900833,1.0900833 0 0 0 1.142577,1.15679 1.9118791,1.9118791 0 0 0 1.135592,-0.44262 l 0.32131,0.64259 a 2.3140723,2.3140723 0 0 1 -1.506882,0.56433 c -1.06426,0 -2.006838,-0.72141 -2.006838,-1.89971 a 1.893226,1.893226 0 0 1 1.956832,-1.91402 z"
       class="cls-1"
       style="fill:#ffffff;stroke-width:0.26458332" />
    <path
       id="path829"
       d="m 85.918966,233.18797 h 0.5284 v -3.71375 h -0.564304 v -0.67849 h 1.471084 v 1.7712 a 2.0670308,2.0670308 0 0 1 -0.02146,0.30723 h 0.01447 a 1.4208125,1.4208125 0 0 1 1.256771,-0.73554 c 0.80719,0 1.271243,0.42143 1.271243,1.38544 v 1.66399 h 0.528664 v 0.67849 h -1.435576 v -2.15677 c 0,-0.44289 -0.114221,-0.74287 -0.571289,-0.74287 -0.642937,0 -1.042828,0.55708 -1.042828,1.22835 v 0.99272 h 0.521414 v 0.6785 h -1.956726 z"
       class="cls-1"
       style="fill:#ffffff;stroke-width:0.26458332" />
    <path
       id="path831"
       d="m 93.504676,228.76006 a 2.5396825,2.5396825 0 0 1 2.564183,2.56394 2.5611666,2.5611666 0 1 1 -5.120746,0 2.5376716,2.5376716 0 0 1 2.556563,-2.56394 z m 0,4.73512 a 2.091346,2.091346 0 0 0 2.042769,-2.17118 2.0401756,2.0401756 0 1 0 -4.078182,0 2.0902083,2.0902083 0 0 0 2.035413,2.17118 z"
       class="cls-1"
       style="fill:#ffffff;stroke-width:0.26458332" />
    <path
       id="path833"
       d="m 97.141665,234.89485 v -4.06358 a 0.13985875,0.13985875 0 0 0 -0.157109,-0.15711 h -0.485749 v -0.39997 h 0.678524 c 0.306917,0 0.428387,0.12867 0.428387,0.37851 v 0.0287 a 1.4279562,1.4279562 0 0 1 -0.02117,0.24988 h 0.01397 a 1.3149792,1.3149792 0 0 1 1.257274,-0.74285 c 0.964274,0 1.563688,0.77153 1.563688,1.8854 0,1.13559 -0.677996,1.87854 -1.613959,1.87854 a 1.3147939,1.3147939 0 0 1 -1.185466,-0.71419 h -0.01447 a 2.0839641,2.0839641 0 0 1 0.02169,0.31419 v 1.34258 h 0.60669 v 0.39997 h -1.69963 v -0.40005 z m 1.613958,-1.37822 c 0.635609,0 1.164167,-0.52866 1.164167,-1.44282 0,-0.87823 -0.471302,-1.44254 -1.142577,-1.44254 -0.599942,0 -1.157022,0.42839 -1.157022,1.44992 0,0.72125 0.39997,1.43544 1.135327,1.43544 z"
       class="cls-1"
       style="fill:#ffffff;stroke-width:0.26458332" />
    <path
       id="path835"
       d="m 102.8705,230.18841 c 0.99272,0 1.50691,0.76428 1.50691,1.65701 a 1.9936089,1.9936089 0 0 1 -0.0217,0.22839 h -2.7564 a 1.3706739,1.3706739 0 0 0 1.39266,1.44282 1.6819298,1.6819298 0 0 0 1.09243,-0.42862 l 0.2217,0.36433 a 2.0358629,2.0358629 0 0 1 -1.32861,0.50006 1.8159148,1.8159148 0 0 1 -1.87854,-1.87854 c 1.1e-4,-1.17827 0.80008,-1.88545 1.77157,-1.88545 z m 0.99997,1.52832 c -0.0289,-0.75671 -0.48575,-1.12112 -1.01439,-1.12112 a 1.2313179,1.2313179 0 0 0 -1.2356,1.12112 z"
       class="cls-1"
       style="fill:#ffffff;stroke-width:0.26458332" />
    <path
       id="path837"
       d="m 105.03524,233.46649 h 0.6072 v -2.63525 a 0.13983229,0.13983229 0 0 0 -0.15709,-0.1571 h -0.48577 v -0.39995 h 0.68575 c 0.29972,0 0.43563,0.12867 0.43563,0.39997 v 0.20696 a 1.1672887,1.1672887 0 0 1 -0.0289,0.25736 h 0.0145 a 1.5905427,1.5905427 0 0 1 1.46399,-0.95007 c 0.88575,0 1.19269,0.50721 1.19269,1.39266 v 1.88542 h 0.60719 v 0.39998 h -1.09294 v -2.1567 c 0,-0.56431 -0.0926,-1.06429 -0.78549,-1.06429 a 1.4267921,1.4267921 0 0 0 -1.36425,1.49267 v 1.32834 h 0.60719 v 0.39998 h -1.69963 z"
       class="cls-1"
       style="fill:#ffffff;stroke-width:0.26458332" />
    <path
       id="path839"
       d="m 64.464169,236.49817 h -7.541657 a 1.4969331,1.4969331 0 0 1 -1.495266,-1.49513 v -7.54179 a 1.4969331,1.4969331 0 0 1 1.495266,-1.49514 h 7.541657 a 1.4969066,1.4969066 0 0 1 1.495134,1.49514 v 7.54179 a 1.4969066,1.4969066 0 0 1 -1.495134,1.49513 z m -7.541657,-9.44967 a 0.41330562,0.41330562 0 0 0 -0.412909,0.41275 v 7.54179 a 0.41330562,0.41330562 0 0 0 0.412909,0.41275 h 7.541657 a 0.41319979,0.41319979 0 0 0 0.41275,-0.41275 v -7.54179 a 0.41319979,0.41319979 0 0 0 -0.41275,-0.41275 z"
       class="cls-1"
       style="fill:#ffffff;stroke-width:0.26458332" />
    <path
       id="path841"
       d="m 56.391282,235.41375 -0.846217,-0.6749 a 12.221263,12.221263 0 0 1 9.617762,-4.60462 c 0.02381,0 0.04741,0 0.07107,2.3e-4 l -0.0058,1.08239 c -0.0217,0 -0.04329,0 -0.06498,0 a 11.145017,11.145017 0 0 0 -8.77181,4.1969 z"
       class="cls-1"
       style="fill:#ffffff;stroke-width:0.26458332" />
  </g>
</svg>
